<svg xmlns="http://www.w3.org/2000/svg" width="600" height="751" stroke-width="1" shape-rendering="crispEdges" text-rendering="geometricPrecision" version="1.1" viewBox="0 0 600 751"><polygon fill="#fff" points="53 7 95 7 95 16 53 16"/><text x="75" y="16" fill="#000" font-family="Helvetica" font-size="12" text-anchor="middle" textLength="40">Node A</text><polygon fill="#fff" points="203 7 245 7 245 16 203 16"/><text x="225" y="16" fill="#000" font-family="Helvetica" font-size="12" text-anchor="middle" textLength="40">Node B</text><polygon fill="#fff" points="353 7 395 7 395 16 353 16"/><text x="375" y="16" fill="#000" font-family="Helvetica" font-size="12" text-anchor="middle" textLength="41">Node C</text><polygon fill="#fff" points="508 7 540 7 540 16 508 16"/><text x="525" y="16" fill="#000" font-family="Helvetica" font-size="12" text-anchor="middle" textLength="31">World</text><line x1="75" x2="75" y1="22" y2="39" stroke="#BBB" stroke-dasharray="2 2"/><line x1="225" x2="225" y1="22" y2="39" stroke="#BBB" stroke-dasharray="2 2"/><line x1="375" x2="375" y1="22" y2="39" stroke="#BBB" stroke-dasharray="2 2"/><line x1="525" x2="525" y1="22" y2="39" stroke="#BBB" stroke-dasharray="2 2"/><line x1="75" x2="75" y1="39" y2="67" stroke="#BBB"/><line x1="225" x2="225" y1="39" y2="67" stroke="#BBB"/><line x1="375" x2="375" y1="39" y2="67" stroke="#BBB"/><line x1="525" x2="525" y1="39" y2="67" stroke="#BBB"/><line x1="75" x2="525" y1="50" y2="50" stroke="#000"/><polygon fill="#000" points="525 50 515 56 515 44"/><polygon fill="#fff" points="242 40 357 40 357 49 242 49"/><text x="243" y="49" fill="#000" font-family="Helvetica" font-size="12" textLength="113">1: Quotation Request</text><polygon fill="#fff" points="355 37 506 37 506 42 355 42"/><text x="356" y="42" fill="#000" font-family="Helvetica" font-size="8" textLength="149">Can you deliver funds to Node C&apos;s IIBAN?</text><line x1="75" x2="75" y1="67" y2="95" stroke="#BBB"/><line x1="225" x2="225" y1="67" y2="95" stroke="#BBB"/><line x1="375" x2="375" y1="67" y2="95" stroke="#BBB"/><line x1="525" x2="525" y1="67" y2="95" stroke="#BBB"/><path fill="none" stroke="#000" d="M 225 84 A73,6 0 0,1 225,72"/><polygon fill="#000" points="225 84 215 90 215 78"/><polygon fill="#fff" points="225 68 310 68 310 77 225 77"/><text x="226" y="77" fill="#000" font-family="Helvetica" font-size="12" textLength="83">2: I can do that!</text><line x1="75" x2="75" y1="95" y2="123" stroke="#BBB"/><line x1="225" x2="225" y1="95" y2="123" stroke="#BBB"/><line x1="375" x2="375" y1="95" y2="123" stroke="#BBB"/><line x1="525" x2="525" y1="95" y2="123" stroke="#BBB"/><line x1="225" x2="375" y1="106" y2="106" stroke="#000"/><polygon fill="#000" points="375 106 365 112 365 100"/><polygon fill="#fff" points="167 96 432 96 432 105 167 105"/><text x="168" y="105" fill="#000" font-family="Helvetica" font-size="12" textLength="263">2.1: RFQ(&apos;Want some free money from Node A?&apos;)</text><line x1="75" x2="75" y1="123" y2="151" stroke="#BBB"/><line x1="225" x2="225" y1="123" y2="151" stroke="#BBB"/><line x1="375" x2="375" y1="123" y2="151" stroke="#BBB"/><line x1="525" x2="525" y1="123" y2="151" stroke="#BBB"/><line x1="525" x2="375" y1="134" y2="134" stroke="red"/><polygon fill="red" points="375 134 385 140 385 128"/><polygon fill="#fff" points="373 124 525 124 525 133 373 133"/><text x="374" y="133" fill="red" font-family="Helvetica" font-size="12" textLength="150">Possible flood of responses!</text><line x1="75" x2="75" y1="151" y2="179" stroke="#BBB"/><line x1="225" x2="225" y1="151" y2="179" stroke="#BBB"/><line x1="375" x2="375" y1="151" y2="179" stroke="#BBB"/><line x1="525" x2="525" y1="151" y2="179" stroke="#BBB"/><line x1="375" x2="225" y1="162" y2="162" stroke="#000"/><polygon fill="#000" points="225 162 235 168 235 156"/><polygon fill="#fff" points="228 152 371 152 371 161 228 161"/><text x="229" y="161" fill="#000" font-family="Helvetica" font-size="12" textLength="141">2.2: QUO(&apos;Most certainly!&apos;)</text><line x1="75" x2="75" y1="179" y2="207" stroke="#BBB"/><line x1="225" x2="225" y1="179" y2="207" stroke="#BBB"/><line x1="375" x2="375" y1="179" y2="207" stroke="#BBB"/><line x1="525" x2="525" y1="179" y2="207" stroke="#BBB"/><line x1="375" x2="525" y1="190" y2="190" stroke="red"/><polygon fill="red" points="525 190 515 196 515 184"/><polygon fill="#fff" points="380 180 518 180 518 189 380 189"/><text x="381" y="189" fill="red" font-family="Helvetica" font-size="12" textLength="136">Possible flood of accepts!</text><line x1="75" x2="75" y1="207" y2="235" stroke="#BBB"/><line x1="225" x2="225" y1="207" y2="235" stroke="#BBB"/><line x1="375" x2="375" y1="207" y2="235" stroke="#BBB"/><line x1="525" x2="525" y1="207" y2="235" stroke="#BBB"/><line x1="225" x2="75" y1="218" y2="218" stroke="#000"/><polygon fill="#000" points="75 218 85 224 85 212"/><polygon fill="#fff" points="34 208 265 208 265 217 34 217"/><text x="35" y="217" fill="#000" font-family="Helvetica" font-size="12" textLength="229">1: QUO(&apos;I can do it for fee &lt;x&gt; in time &lt;y&gt;&apos;)</text><line x1="75" x2="75" y1="235" y2="263" stroke="#BBB"/><line x1="225" x2="225" y1="235" y2="263" stroke="#BBB"/><line x1="375" x2="375" y1="235" y2="263" stroke="#BBB"/><line x1="525" x2="525" y1="235" y2="263" stroke="#BBB"/><line x1="525" x2="75" y1="246" y2="246" stroke="#000"/><polygon fill="#000" points="75 246 85 252 85 240"/><polygon fill="#fff" points="250 236 349 236 349 245 250 245"/><text x="251" y="245" fill="#000" font-family="Helvetica" font-size="12" textLength="97">(Other responses)</text><line x1="75" x2="75" y1="263" y2="280" stroke="#BBB" stroke-dasharray="2 2"/><line x1="225" x2="225" y1="263" y2="280" stroke="#BBB" stroke-dasharray="2 2"/><line x1="375" x2="375" y1="263" y2="280" stroke="#BBB" stroke-dasharray="2 2"/><line x1="525" x2="525" y1="263" y2="280" stroke="#BBB" stroke-dasharray="2 2"/><line x1="75" x2="75" y1="280" y2="308" stroke="#BBB"/><line x1="225" x2="225" y1="280" y2="308" stroke="#BBB"/><line x1="375" x2="375" y1="280" y2="308" stroke="#BBB"/><line x1="525" x2="525" y1="280" y2="308" stroke="#BBB"/><path fill="none" stroke="red" d="M 75 297 A73,6 0 0,1 75,285"/><polygon fill="red" points="75 297 65 303 65 291"/><polygon fill="#fff" points="75 281 284 281 284 290 75 290"/><text x="76" y="290" fill="red" font-family="Helvetica" font-size="12" textLength="207">Due diligence on all responding nodes.</text><line x1="75" x2="75" y1="308" y2="336" stroke="#BBB"/><line x1="225" x2="225" y1="308" y2="336" stroke="#BBB"/><line x1="375" x2="375" y1="308" y2="336" stroke="#BBB"/><line x1="525" x2="525" y1="308" y2="336" stroke="#BBB"/><path fill="none" stroke="#000" d="M 75 325 A73,6 0 0,1 75,313"/><polygon fill="#000" points="75 325 65 331 65 319"/><polygon fill="#fff" points="75 309 436 309 436 318 75 318"/><text x="76" y="318" fill="#000" font-family="Helvetica" font-size="12" textLength="359">Node B&apos;s response looks like the most suitable (by some definition).</text><line x1="75" x2="75" y1="336" y2="364" stroke="#BBB"/><line x1="225" x2="225" y1="336" y2="364" stroke="#BBB"/><line x1="375" x2="375" y1="336" y2="364" stroke="#BBB"/><line x1="525" x2="525" y1="336" y2="364" stroke="#BBB"/><line x1="75" x2="225" y1="347" y2="347" stroke="#000"/><polygon fill="#000" points="225 347 215 353 215 341"/><polygon fill="#fff" points="21 337 278 337 278 346 21 346"/><text x="22" y="346" fill="#000" font-family="Helvetica" font-size="12" textLength="255">2: EXE(&apos;I agree. Please initiate the transaction.&apos;)</text><line x1="75" x2="75" y1="364" y2="392" stroke="#BBB"/><line x1="225" x2="225" y1="364" y2="392" stroke="#BBB"/><line x1="375" x2="375" y1="364" y2="392" stroke="#BBB"/><line x1="525" x2="525" y1="364" y2="392" stroke="#BBB"/><line x1="225" x2="75" y1="375" y2="375" stroke="red"/><polygon fill="red" points="75 375 85 381 85 369"/><polygon fill="#fff" points="13 365 285 365 285 374 13 374"/><text x="14" y="374" fill="red" font-family="Helvetica" font-size="12" textLength="270">(non-error response indicates everything still good)</text><polygon fill="#fff" points="283 362 470 362 470 367 283 367"/><text x="284" y="367" fill="#000" font-family="Helvetica" font-size="8" textLength="185">Protects against &apos;B&apos; denying receipt-of-funds later on</text><line x1="75" x2="75" y1="392" y2="420" stroke="#BBB"/><line x1="225" x2="225" y1="392" y2="420" stroke="#BBB"/><line x1="375" x2="375" y1="392" y2="420" stroke="#BBB"/><line x1="525" x2="525" y1="392" y2="420" stroke="#BBB"/><path fill="none" stroke="#000" d="M 225 409 A73,6 0 0,1 225,397"/><polygon fill="#000" points="225 409 215 415 215 403"/><polygon fill="#fff" points="225 393 430 393 430 402 225 402"/><text x="226" y="402" fill="#000" font-family="Helvetica" font-size="12" textLength="203">3: Transaction confirmed and initiated.</text><line x1="75" x2="75" y1="420" y2="437" stroke="#BBB"/><line x1="225" x2="225" y1="420" y2="437" stroke="#BBB"/><line x1="375" x2="375" y1="420" y2="437" stroke="#BBB"/><line x1="525" x2="525" y1="420" y2="437" stroke="#BBB"/><line x1="37" x2="563" y1="425" y2="425" stroke="#000" stroke-dasharray="2 2"/><polygon fill="#fff" points="278 421 320 421 320 430 278 430"/><text x="279" y="430" fill="#000" font-family="Helvetica" font-size="12" textLength="40">either...</text><line x1="75" x2="75" y1="437" y2="465" stroke="#BBB"/><line x1="225" x2="225" y1="437" y2="465" stroke="#BBB"/><line x1="375" x2="375" y1="437" y2="465" stroke="#BBB"/><line x1="525" x2="525" y1="437" y2="465" stroke="#BBB"/><line x1="75" x2="225" y1="448" y2="448" stroke="#000"/><polygon fill="#000" points="225 448 215 454 215 442"/><polygon fill="#fff" points="67 438 232 438 232 447 67 447"/><text x="68" y="447" fill="#000" font-family="Helvetica" font-size="12" textLength="163">4a: RPT(&apos;Funds have arrived.&apos;)</text><line x1="75" x2="75" y1="465" y2="482" stroke="#BBB"/><line x1="225" x2="225" y1="465" y2="482" stroke="#BBB"/><line x1="375" x2="375" y1="465" y2="482" stroke="#BBB"/><line x1="525" x2="525" y1="465" y2="482" stroke="#BBB"/><line x1="37" x2="563" y1="470" y2="470" stroke="#000" stroke-dasharray="2 2"/><polygon fill="#fff" points="275 466 324 466 324 475 275 475"/><text x="276" y="475" fill="#000" font-family="Helvetica" font-size="12" textLength="47">or/then...</text><line x1="75" x2="75" y1="482" y2="510" stroke="#BBB"/><line x1="225" x2="225" y1="482" y2="510" stroke="#BBB"/><line x1="375" x2="375" y1="482" y2="510" stroke="#BBB"/><line x1="525" x2="525" y1="482" y2="510" stroke="#BBB"/><path fill="none" stroke="#000" d="M 225 499 A73,6 0 0,1 225,487"/><polygon fill="#000" points="225 499 215 505 215 493"/><polygon fill="#fff" points="225 483 380 483 380 492 225 492"/><text x="226" y="492" fill="#000" font-family="Helvetica" font-size="12" textLength="153">4b: Confirm funds are here...</text><line x1="75" x2="75" y1="510" y2="527" stroke="#BBB"/><line x1="225" x2="225" y1="510" y2="527" stroke="#BBB"/><line x1="375" x2="375" y1="510" y2="527" stroke="#BBB"/><line x1="525" x2="525" y1="510" y2="527" stroke="#BBB"/><line x1="37" x2="563" y1="515" y2="515" stroke="#000" stroke-dasharray="2 2"/><line x1="75" x2="75" y1="527" y2="555" stroke="#BBB"/><line x1="225" x2="225" y1="527" y2="555" stroke="#BBB"/><line x1="375" x2="375" y1="527" y2="555" stroke="#BBB"/><line x1="525" x2="525" y1="527" y2="555" stroke="#BBB"/><line x1="225" x2="75" y1="538" y2="538" stroke="#000"/><polygon fill="#000" points="75 538 85 544 85 532"/><polygon fill="#fff" points="41 528 257 528 257 537 41 537"/><text x="42" y="537" fill="#000" font-family="Helvetica" font-size="12" textLength="214">4c: RPT(&apos;Funds confirmed as received.&apos;)</text><line x1="75" x2="75" y1="555" y2="583" stroke="#BBB"/><line x1="225" x2="225" y1="555" y2="583" stroke="#BBB"/><line x1="375" x2="375" y1="555" y2="583" stroke="#BBB"/><line x1="525" x2="525" y1="555" y2="583" stroke="#BBB"/><line x1="225" x2="75" y1="566" y2="566" stroke="#000"/><polygon fill="#000" points="75 566 85 572 85 560"/><polygon fill="#fff" points="91 556 208 556 208 565 91 565"/><text x="92" y="565" fill="#000" font-family="Helvetica" font-size="12" textLength="115">4.1: EXR(&apos;Pending...&apos;)</text><line x1="75" x2="75" y1="583" y2="611" stroke="#BBB"/><line x1="225" x2="225" y1="583" y2="611" stroke="#BBB"/><line x1="375" x2="375" y1="583" y2="611" stroke="#BBB"/><line x1="525" x2="525" y1="583" y2="611" stroke="#BBB"/><line x1="225" x2="375" y1="594" y2="594" stroke="#000"/><polygon fill="#000" points="375 594 365 600 365 588"/><polygon fill="#fff" points="118 584 480 584 480 593 118 593"/><text x="119" y="593" fill="#000" font-family="Helvetica" font-size="12" textLength="360">4.2: Actual transfer of some nature occurs here (out of IFEX scope.)</text><line x1="75" x2="75" y1="611" y2="639" stroke="#BBB"/><line x1="225" x2="225" y1="611" y2="639" stroke="#BBB"/><line x1="375" x2="375" y1="611" y2="639" stroke="#BBB"/><line x1="525" x2="525" y1="611" y2="639" stroke="#BBB"/><line x1="225" x2="375" y1="622" y2="622" stroke="#000"/><polygon fill="#000" points="375 622 365 628 365 616"/><polygon fill="#fff" points="199 612 400 612 400 621 199 621"/><text x="200" y="621" fill="#000" font-family="Helvetica" font-size="12" textLength="199">4.3: RPT(&apos;You now have my money.&apos;)</text><line x1="75" x2="75" y1="639" y2="667" stroke="#BBB"/><line x1="225" x2="225" y1="639" y2="667" stroke="#BBB"/><line x1="375" x2="375" y1="639" y2="667" stroke="#BBB"/><line x1="525" x2="525" y1="639" y2="667" stroke="#BBB"/><path fill="none" stroke="red" d="M 375 644 A75,6 0 0,1 375,656"/><polygon fill="red" points="375 656 385 662 385 650"/><polygon fill="#fff" points="246 640 373 640 373 649 246 649"/><text x="247" y="649" fill="red" font-family="Helvetica" font-size="12" textLength="125">Check funds are here...</text><line x1="75" x2="75" y1="667" y2="695" stroke="#BBB"/><line x1="225" x2="225" y1="667" y2="695" stroke="#BBB"/><line x1="375" x2="375" y1="667" y2="695" stroke="#BBB"/><line x1="525" x2="525" y1="667" y2="695" stroke="#BBB"/><line x1="375" x2="225" y1="678" y2="678" stroke="#000"/><polygon fill="#000" points="225 678 235 684 235 672"/><polygon fill="#fff" points="188 668 411 668 411 677 188 677"/><text x="189" y="677" fill="#000" font-family="Helvetica" font-size="12" textLength="221">4.4b: RPT(&apos;Got it.&apos;) (ie. C-proof-of-receipt)</text><line x1="75" x2="75" y1="695" y2="723" stroke="#BBB"/><line x1="225" x2="225" y1="695" y2="723" stroke="#BBB"/><line x1="375" x2="375" y1="695" y2="723" stroke="#BBB"/><line x1="525" x2="525" y1="695" y2="723" stroke="#BBB"/><line x1="225" x2="75" y1="706" y2="706" stroke="#000"/><polygon fill="#000" points="75 706 85 712 85 700"/><polygon fill="#fff" points="14 696 285 696 285 705 14 705"/><text x="15" y="705" fill="#000" font-family="Helvetica" font-size="12" textLength="269">1: RPT(&apos;Status now SUCCESS&apos;,C-proof-of-receipt)</text><line x1="75" x2="75" y1="723" y2="751" stroke="#BBB"/><line x1="225" x2="225" y1="723" y2="751" stroke="#BBB"/><line x1="375" x2="375" y1="723" y2="751" stroke="#BBB"/><line x1="525" x2="525" y1="723" y2="751" stroke="#BBB"/><line x1="75" x2="225" y1="734" y2="734" stroke="#000"/><polygon fill="#000" points="225 734 215 740 215 728"/><polygon fill="#fff" points="70 724 228 724 228 733 70 733"/><text x="71" y="733" fill="#000" font-family="Helvetica" font-size="12" textLength="156">2: RPT(&apos;Yep, we&apos;re all done.&apos;)</text><line x1="75" x2="75" y1="745" y2="751" stroke="#BBB"/><line x1="225" x2="225" y1="745" y2="751" stroke="#BBB"/><line x1="375" x2="375" y1="745" y2="751" stroke="#BBB"/><line x1="525" x2="525" y1="745" y2="751" stroke="#BBB"/></svg>